<svg width="101" height="102" viewBox="0 0 101 102" fill="none" xmlns="http://www.w3.org/2000/svg">
<rect x="3.83643" y="4.33656" width="93.3366" height="93.3366" fill="#F4EBF9" stroke="#242424" stroke-width="7"/>
<path fill-rule="evenodd" clip-rule="evenodd" d="M34.4487 95.0724V67.388H64.536V95.0724H34.4487Z" fill="#231F20"/>
<path fill-rule="evenodd" clip-rule="evenodd" d="M49.5091 24C63.419 24 74.8244 35.3716 74.8244 49.3153V59.807C74.8244 73.7168 63.4528 85.1223 49.5091 85.1223C35.5992 85.1223 24.1938 73.7507 24.1938 59.807V49.3153C24.1938 35.4054 35.5654 24 49.5091 24Z" fill="#FCD3C1"/>
<path fill-rule="evenodd" clip-rule="evenodd" d="M80.9842 62.1422C74.3169 70.9755 67.4127 73.5815 58.681 63.0898C53.1644 56.4564 42.4696 67.5572 58.3086 73.3446C67.1419 76.5597 77.2613 71.1786 80.9842 62.1422Z" fill="#231F20"/>
<path fill-rule="evenodd" clip-rule="evenodd" d="M18 62.1422C24.6673 70.9755 31.5714 73.5815 40.3032 63.0898C45.8198 56.4564 56.5484 67.5572 40.6755 73.3446C31.8422 76.5597 21.7228 71.1786 18 62.1422Z" fill="#231F20"/>
<path fill-rule="evenodd" clip-rule="evenodd" d="M37.8668 36.5223C43.5187 36.5223 48.0877 41.0912 48.0877 46.7432C48.0877 52.3951 43.5187 56.9979 37.8668 56.9979C32.2148 56.9979 27.6121 52.429 27.6121 46.7432C27.6121 41.0912 32.2148 36.5223 37.8668 36.5223Z" fill="white"/>
<path fill-rule="evenodd" clip-rule="evenodd" d="M37.8668 39.2975C41.9619 39.2975 45.3125 42.6142 45.3125 46.7432C45.3125 50.8721 41.9957 54.1888 37.8668 54.1888C33.7378 54.1888 30.4211 50.8721 30.4211 46.7432C30.4211 42.6142 33.7378 39.2975 37.8668 39.2975Z" fill="#231F20"/>
<path fill-rule="evenodd" clip-rule="evenodd" d="M70.7293 45.051C68.8679 48.2323 65.4834 50.1953 61.7945 50.1953C57.9024 50.1953 54.3488 47.9954 52.5889 44.5433L52.0474 43.4941L54.1458 42.4111L54.6872 43.4603C56.041 46.134 58.7823 47.8262 61.7945 47.8262C64.8066 47.8262 67.2772 46.3032 68.6987 43.8326L69.3078 42.8173L71.3385 44.0018L70.7293 45.0171V45.051Z" fill="#231F20"/>
<path fill-rule="evenodd" clip-rule="evenodd" d="M52.0474 43.528H54.518V54.1888H52.0474V43.528Z" fill="#231F20"/>
<path fill-rule="evenodd" clip-rule="evenodd" d="M68.8677 44.0356H71.3383V54.1888H68.8677V44.0356Z" fill="#231F20"/>
<path fill-rule="evenodd" clip-rule="evenodd" d="M63.25 47.657H65.7206V54.1888H63.25V47.657Z" fill="#231F20"/>
<path fill-rule="evenodd" clip-rule="evenodd" d="M57.6321 47.86H60.1365V54.1888H57.6321V47.86Z" fill="#231F20"/>
</svg>
