<svg width="101" height="101" viewBox="0 0 101 101" fill="none" xmlns="http://www.w3.org/2000/svg">
<path d="M51.9412 97.3366H48.3925C23.5991 97.3366 3.50017 77.2376 3.50017 52.4443L3.50017 4L96.8335 4L96.8335 52.4443C96.8335 77.2376 76.7345 97.3366 51.9412 97.3366Z" fill="#EFF9EB"/>
<path fill-rule="evenodd" clip-rule="evenodd" d="M31.5239 94.2538V93.9086C31.5239 85.763 38.2199 79.067 46.3655 79.067H51.4392C59.5849 79.067 66.2808 85.7285 66.2808 93.9086V94.2538H31.5239Z" fill="#485E88"/>
<path fill-rule="evenodd" clip-rule="evenodd" d="M38.8071 50.4193H59.0331V81.3795H38.8071V50.4193Z" fill="#485E88"/>
<path fill-rule="evenodd" clip-rule="evenodd" d="M69.629 31.712L75.255 45.6907C75.7728 47.0023 74.9789 48.659 73.4602 48.659H71.1477V57.771C71.1477 60.4978 68.9042 62.7412 66.143 62.7412H58.9983V65.8821H38.7723V49.867C35.4933 46.5536 33.4915 41.9975 33.4915 36.9583C33.4915 26.7763 41.7406 18.5271 51.9226 18.5271C60.2753 18.5271 67.3165 24.0841 69.5945 31.6774L69.629 31.712Z" fill="#485E88"/>
<path fill-rule="evenodd" clip-rule="evenodd" d="M45.0891 34.2661C47.3671 37.7522 51.578 40.0992 56.4447 40.0992C61.3113 40.0992 65.5222 37.7522 67.8002 34.2661C65.5222 30.7801 61.3113 28.433 56.4447 28.433C51.578 28.433 47.3671 30.7801 45.0891 34.2661Z" fill="#6C8CC7"/>
<path fill-rule="evenodd" clip-rule="evenodd" d="M63.2781 30.1588C61.2762 29.0543 58.9292 28.433 56.4095 28.433C53.8899 28.433 51.5429 29.0543 49.541 30.1588C50.3004 33.2307 53.0961 35.5087 56.4095 35.5087C59.723 35.5087 62.5188 33.2307 63.2781 30.1588Z" fill="white"/>
<path fill-rule="evenodd" clip-rule="evenodd" d="M60.3448 28.9852C59.1023 28.6401 57.7907 28.4675 56.4101 28.4675C55.0295 28.4675 53.7179 28.6401 52.4753 28.9852C52.7169 30.9181 54.3737 32.4023 56.4101 32.4023C58.4465 32.4023 60.0687 30.9181 60.3448 28.9852Z" fill="#485E88"/>
<path fill-rule="evenodd" clip-rule="evenodd" d="M48.1609 18.5616H51.9576V76.9616H48.1609C34.8725 76.9616 24.0347 66.1238 24.0347 52.8354V42.6879C24.0347 29.434 34.907 18.5616 48.1609 18.5616Z" fill="#231F20"/>
<path fill-rule="evenodd" clip-rule="evenodd" d="M24.0345 50.7644H51.9574V76.9961C51.9574 84.693 45.6756 90.9748 37.9787 90.9748C30.3163 90.9748 24 84.693 24 76.9961V50.7644H24.0345Z" fill="#231F20"/>
<path d="M51.9412 97.3366H48.3925C23.5991 97.3366 3.50017 77.2376 3.50017 52.4443L3.50017 4L96.8335 4L96.8335 52.4443C96.8335 77.2376 76.7345 97.3366 51.9412 97.3366Z" stroke="#242424" stroke-width="7"/>
</svg>
