<svg width="101" height="101" viewBox="0 0 101 101" fill="none" xmlns="http://www.w3.org/2000/svg">
<rect x="3.83643" y="4" width="93.3366" height="93.3366" rx="46.6683" fill="#F5D8CB"/>
<path fill-rule="evenodd" clip-rule="evenodd" d="M68.9326 69.8554H43.6511V95.8476H68.9326V69.8554Z" fill="#EC008C"/>
<path fill-rule="evenodd" clip-rule="evenodd" d="M68.9328 81.7008V60.1422C72.8926 56.0809 75.3632 50.5643 75.3632 44.4386C75.3632 32.0517 65.3115 22 52.9246 22C35.7995 22 28.8953 41.8326 20.1974 55.0317C19.5544 56.6224 20.5358 58.6192 22.3634 58.6192H29.5722V75.6427C29.5722 78.9933 32.3136 81.7008 35.6303 81.7008H68.9328Z" fill="#EC008C"/>
<path fill-rule="evenodd" clip-rule="evenodd" d="M30.249 64.6773C30.249 71.243 35.5287 76.6242 42.0944 76.6581C48.6602 76.6581 54.0414 71.3784 54.0752 64.8127V63.4589H51.3677V64.8127C51.3677 69.8893 47.2049 73.9844 42.1283 73.9506C37.0517 73.9506 32.9565 69.7878 32.9904 64.7112V63.3574H30.2829V64.7112L30.249 64.6773Z" fill="#F8ABAD"/>
<path fill-rule="evenodd" clip-rule="evenodd" d="M64.0253 44.4386C61.1486 40.4788 56.512 37.8728 51.2661 37.8728H42.1959C36.9501 37.8728 32.3135 40.4788 29.4368 44.4386C32.3135 48.3983 36.9501 51.0043 42.1959 51.0043H51.2661C56.512 51.0043 61.1486 48.3983 64.0253 44.4386Z" fill="white"/>
<path fill-rule="evenodd" clip-rule="evenodd" d="M48.0512 50.2597C51.2663 50.2597 53.8723 47.6538 53.8723 44.4386C53.8723 41.2234 51.2663 38.6174 48.0512 38.6174C44.836 38.6174 42.23 41.2234 42.23 44.4386C42.23 47.6538 44.836 50.2597 48.0512 50.2597Z" fill="white"/>
<path fill-rule="evenodd" clip-rule="evenodd" d="M48.0509 47.823C49.9462 47.823 51.4353 46.3 51.4353 44.4047C51.4353 42.5095 49.9123 41.0203 48.0509 41.0203C46.1895 41.0203 44.6665 42.5433 44.6665 44.4047C44.6665 46.2661 46.1895 47.823 48.0509 47.823Z" fill="#893535"/>
<path fill-rule="evenodd" clip-rule="evenodd" d="M48.0505 45.7246C48.7612 45.7246 49.3365 45.1493 49.3365 44.4386C49.3365 43.7278 48.7612 43.1525 48.0505 43.1525C47.3398 43.1525 46.7644 43.7278 46.7644 44.4386C46.7644 45.1493 47.3398 45.7246 48.0505 45.7246Z" fill="#D7C2B1"/>
<path fill-rule="evenodd" clip-rule="evenodd" d="M55.3607 38.6174H54.0408V31.8148H55.3607V38.6174Z" fill="white"/>
<path fill-rule="evenodd" clip-rule="evenodd" d="M52.044 38.6174H50.7241V31.8148H52.044V38.6174Z" fill="white"/>
<path fill-rule="evenodd" clip-rule="evenodd" d="M48.6932 38.6174H47.3733V31.8148H48.6932V38.6174Z" fill="white"/>
<path fill-rule="evenodd" clip-rule="evenodd" d="M45.3766 38.6174H44.0566V31.8148H45.3766V38.6174Z" fill="white"/>
<path fill-rule="evenodd" clip-rule="evenodd" d="M42.0601 38.6174H40.7402V31.8148H42.0601V38.6174Z" fill="white"/>
<path fill-rule="evenodd" clip-rule="evenodd" d="M42.8045 35.6053C47.678 35.6053 51.6039 39.565 51.6039 44.4386C51.6039 49.3121 47.6442 53.238 42.8045 53.238C37.9648 53.238 33.9712 49.2783 33.9712 44.4386C33.9712 39.5989 37.9309 35.6053 42.8045 35.6053Z" fill="#E6D8CE"/>
<path fill-rule="evenodd" clip-rule="evenodd" d="M42.8048 39.8696C45.3431 39.8696 47.3737 41.9003 47.3737 44.4386C47.3737 46.9769 45.3431 49.0075 42.8048 49.0075C40.2665 49.0075 38.2358 46.9769 38.2358 44.4386C38.2358 41.9003 40.2665 39.8696 42.8048 39.8696Z" fill="#231F20"/>
<rect x="3.83643" y="4" width="93.3366" height="93.3366" rx="46.6683" stroke="#242424" stroke-width="7"/>
</svg>
