<svg width="101" height="101" viewBox="0 0 101 101" fill="none" xmlns="http://www.w3.org/2000/svg">
<path d="M3.83643 48.5654C3.83643 23.772 23.9354 3.67311 48.7287 3.67311L52.2775 3.67311C77.0708 3.67311 97.1698 23.7721 97.1698 48.5654V97.0097L3.83643 97.0097L3.83643 48.5654Z" fill="#F9F6EB"/>
<path fill-rule="evenodd" clip-rule="evenodd" d="M41.4846 77.7257H60.9788V94.7154H41.4846V77.7257Z" fill="#260308"/>
<path fill-rule="evenodd" clip-rule="evenodd" d="M32.5491 32.0363H69.879L73.8388 63.6466C75.3956 75.9997 63.6517 86.2544 51.231 86.2544C38.8102 86.2544 27.0664 75.9659 28.6232 63.6466L32.583 32.0363H32.5491Z" fill="#8996AD"/>
<path fill-rule="evenodd" clip-rule="evenodd" d="M68.4246 67.5387C67.4092 69.6032 66.0555 71.4985 64.3971 73.0553V67.5387H68.4246ZM62.5357 74.6121C60.6743 75.9997 58.5421 77.0151 56.2407 77.6581V67.5387H62.5357V74.6121ZM54.3793 78.0642C53.364 78.2334 52.3148 78.335 51.2318 78.335C50.1488 78.335 49.0996 78.2334 48.0843 78.0642V67.5387H54.3793V78.0642ZM46.2229 77.6581C43.9215 77.0489 41.7893 75.9997 39.9279 74.6121V67.5387H46.2229V77.6581ZM38.0665 73.0553C36.4081 71.4646 35.0544 69.6032 34.0391 67.5387H38.0665V73.0553Z" fill="white"/>
<path fill-rule="evenodd" clip-rule="evenodd" d="M73.9746 44.051V39.1774C73.9746 30.2765 66.6982 23 57.7972 23H44.6319C35.7309 23 28.4883 30.2765 28.4883 39.1774V44.051H73.9746Z" fill="#1C4B5A"/>
<path fill-rule="evenodd" clip-rule="evenodd" d="M22.9719 43.3741H79.4914C83.3496 43.3741 86.4971 46.5216 86.4971 50.3798H16C16 46.5216 19.1475 43.3741 23.0057 43.3741H22.9719Z" fill="#1C4B5A"/>
<path fill-rule="evenodd" clip-rule="evenodd" d="M33.5308 54.4749H49.9112V57.3517H33.5308V54.4749Z" fill="#260308"/>
<path fill-rule="evenodd" clip-rule="evenodd" d="M52.5178 54.4749H68.8983V57.3517H52.5178V54.4749Z" fill="#260308"/>
<path d="M3.83643 48.5654C3.83643 23.772 23.9354 3.67311 48.7287 3.67311L52.2775 3.67311C77.0708 3.67311 97.1698 23.7721 97.1698 48.5654V97.0097L3.83643 97.0097L3.83643 48.5654Z" stroke="#242424" stroke-width="7"/>
</svg>
