<svg width="102" height="101" viewBox="0 0 102 101" fill="none" xmlns="http://www.w3.org/2000/svg">
<rect x="4.1731" y="3.67311" width="93.3366" height="93.3366" rx="46.6683" fill="#F9EBEF"/>
<path fill-rule="evenodd" clip-rule="evenodd" d="M51.2531 36.9131C41.3707 36.9131 33.282 45.0018 33.282 54.8843V62.3299C33.282 72.2124 41.3707 80.3011 51.2531 80.3011C61.1356 80.3011 69.2243 72.2124 69.2243 62.3299V54.8843C69.2243 45.0018 61.1356 36.9131 51.2531 36.9131Z" fill="#F8ABAD"/>
<path fill-rule="evenodd" clip-rule="evenodd" d="M59.0713 46.9648C55.1792 46.9648 52.0317 50.1122 52.0317 54.0043C52.0317 57.8964 55.1792 61.0439 59.0713 61.0439C62.9634 61.0439 66.1108 57.8964 66.1108 54.0043C66.1108 50.1122 62.9634 46.9648 59.0713 46.9648Z" fill="#40272C"/>
<path fill-rule="evenodd" clip-rule="evenodd" d="M43.4697 51.5337C39.5777 51.5337 36.4302 54.6812 36.4302 58.5733C36.4302 62.4653 39.5777 65.6128 43.4697 65.6128C47.3618 65.6128 50.5093 62.4653 50.5093 58.5733C50.5093 54.6812 47.3618 51.5337 43.4697 51.5337Z" fill="#40272C"/>
<path fill-rule="evenodd" clip-rule="evenodd" d="M55.7888 70.7909H46.7863C45.2972 70.7909 44.0449 72.0093 44.0449 73.5323C44.0449 75.0214 45.2633 76.2737 46.7863 76.2737H55.7888C57.2779 76.2737 58.5302 75.0553 58.5302 73.5323C58.5302 72.0432 57.3118 70.7909 55.7888 70.7909Z" fill="#FF0000"/>
<path fill-rule="evenodd" clip-rule="evenodd" d="M40.4231 87.7468C38.0879 89.642 36.2265 92.1465 35.1096 94.9894H67.4307C66.28 92.045 64.3508 89.5067 61.9141 87.5776C58.9697 85.2423 55.2806 83.8547 51.2532 83.8547C47.1581 83.8547 43.3676 85.31 40.3893 87.7129L40.4231 87.7468Z" fill="#FF0000"/>
<path fill-rule="evenodd" clip-rule="evenodd" d="M51.254 25C65.4685 25 77.1108 36.6423 77.1108 50.8568V67.3727H74.7417V50.8568C74.7417 37.9623 64.1824 27.4029 51.2878 27.4029C38.3933 27.4029 27.8339 37.9623 27.8339 50.8568V67.3727H25.4648V50.8568C25.4648 36.6423 37.1072 25 51.3217 25H51.254Z" fill="#527A8E"/>
<path fill-rule="evenodd" clip-rule="evenodd" d="M27.901 44.9341C30.8792 44.9341 33.2822 47.3709 33.2822 50.3153V63.7514C33.2822 66.6958 30.8792 69.1326 27.901 69.1326C24.9565 69.1326 22.5198 66.7296 22.5198 63.7514V50.3153C22.5198 47.3709 24.9227 44.9341 27.901 44.9341Z" fill="#B777CE"/>
<path fill-rule="evenodd" clip-rule="evenodd" d="M74.6397 44.9341C77.5842 44.9341 80.0209 47.3709 80.0209 50.3153V63.7514C80.0209 66.6958 77.5842 69.1326 74.6397 69.1326C71.6953 69.1326 69.2585 66.7296 69.2585 63.7514V50.3153C69.2585 47.3709 71.6953 44.9341 74.6397 44.9341Z" fill="#B777CE"/>
<path fill-rule="evenodd" clip-rule="evenodd" d="M22.5198 61.6531C20.4891 61.1116 19 59.2501 19 57.0164C19 54.7827 20.4891 52.9552 22.5198 52.3798V61.6531Z" fill="#F05B72"/>
<path fill-rule="evenodd" clip-rule="evenodd" d="M80.0208 61.6531C82.0514 61.1116 83.5405 59.2501 83.5405 57.0164C83.5405 54.7827 82.0514 52.9552 80.0208 52.3798V61.6531Z" fill="#F05B72"/>
<rect x="4.1731" y="3.67311" width="93.3366" height="93.3366" rx="46.6683" stroke="#242424" stroke-width="7"/>
</svg>
