<svg width="101" height="101" viewBox="0 0 101 101" fill="none" xmlns="http://www.w3.org/2000/svg">
<path d="M51.9444 97.0097C76.7377 97.0097 96.8367 76.9107 96.8367 52.1174V3.67312H48.3924C23.599 3.67312 3.50011 23.7721 3.50011 48.5654V97.0097H51.9444Z" fill="#F9F6EB"/>
<path fill-rule="evenodd" clip-rule="evenodd" d="M71.0185 77.2979L49.6629 88.2295L28.375 77.2979L34.1623 94.8968H65.2311L71.0185 77.2979Z" fill="#EC008C"/>
<path fill-rule="evenodd" clip-rule="evenodd" d="M49.6965 20C66.6524 20 80.393 33.7407 80.393 50.6965C80.393 67.6524 66.6524 81.393 49.6965 81.393C32.7407 81.393 19 67.6524 19 50.6965C19 33.7407 32.7407 20 49.6965 20Z" fill="#990000"/>
<path fill-rule="evenodd" clip-rule="evenodd" d="M49.6965 41.9986C59.139 41.9986 66.8554 49.715 66.8554 59.1575V69.0061C66.8554 76.2826 62.2865 82.5437 55.8561 85.0143C55.2808 87.8911 52.7425 90.0909 49.6965 90.0909C46.6505 90.0909 44.1122 87.8911 43.5369 85.0143C37.1065 82.5099 32.5376 76.2826 32.5376 69.0061V59.1575C32.5376 49.715 40.254 41.9986 49.6965 41.9986Z" fill="#FEC157"/>
<path fill-rule="evenodd" clip-rule="evenodd" d="M49.0873 47.8875C47.2597 52.5241 42.7585 55.6039 37.7495 55.6039H36.7681V53.6409H37.7495C41.9462 53.6409 45.7367 51.0349 47.2597 47.1767L47.632 46.2629L49.4596 46.9737L49.0873 47.8875Z" fill="#F58220"/>
<path fill-rule="evenodd" clip-rule="evenodd" d="M50.3064 47.8875C52.1339 52.5241 56.6352 55.6039 61.6441 55.6039H62.6256V53.6409H61.6441C57.4474 53.6409 53.6908 51.0349 52.1339 47.1767L51.7617 46.2629L49.9341 46.9737L50.3064 47.8875Z" fill="#F58220"/>
<path fill-rule="evenodd" clip-rule="evenodd" d="M40.4239 52.0841C46.2451 52.0841 50.9494 56.7884 50.9494 62.6096C50.9494 68.4307 46.2451 73.1351 40.4239 73.1351C34.6028 73.1351 29.8984 68.4307 29.8984 62.6096C29.8984 56.7884 34.6028 52.0841 40.4239 52.0841Z" fill="#F51D00"/>
<path fill-rule="evenodd" clip-rule="evenodd" d="M40.4233 54.927C44.6538 54.927 48.1059 58.3791 48.1059 62.6096C48.1059 66.8401 44.6538 70.2922 40.4233 70.2922C36.1928 70.2922 32.7407 66.8401 32.7407 62.6096C32.7407 58.3791 36.1928 54.927 40.4233 54.927Z" fill="#62297E"/>
<path fill-rule="evenodd" clip-rule="evenodd" d="M59.7489 52.0841C65.57 52.0841 70.2744 56.7884 70.2744 62.6096C70.2744 68.4307 65.5362 73.1351 59.7489 73.1351C53.9615 73.1351 49.2234 68.4307 49.2234 62.6096C49.2234 56.7884 53.9277 52.0841 59.7489 52.0841Z" fill="#F51D00"/>
<path fill-rule="evenodd" clip-rule="evenodd" d="M59.7485 54.927C63.979 54.927 67.4311 58.3791 67.4311 62.6096C67.4311 66.8401 63.979 70.2922 59.7485 70.2922C55.518 70.2922 52.0659 66.8401 52.0659 62.6096C52.0659 58.3791 55.518 54.927 59.7485 54.927Z" fill="#62297E"/>
<path fill-rule="evenodd" clip-rule="evenodd" d="M58.1578 76.3164C56.9733 79.87 53.6227 82.4422 49.6968 82.4422C45.7709 82.4422 42.3865 79.87 41.2358 76.3164H58.1917H58.1578Z" fill="white"/>
<path fill-rule="evenodd" clip-rule="evenodd" d="M34.1288 61.3573C34.6703 58.7852 36.7009 56.7884 39.3069 56.2807L39.8823 56.1792C39.8823 56.1792 40.0176 56.1792 40.0853 56.1792C40.4576 56.1792 40.7622 56.4838 40.7622 56.8561C40.7622 57.2284 40.4915 57.4991 40.1192 57.533L39.5438 57.6345C37.4793 58.0406 35.8548 59.6313 35.4487 61.6619L35.3472 62.2373C35.3472 62.5757 35.0426 62.8465 34.6703 62.8465C34.298 62.8465 33.9934 62.5419 33.9934 62.1696C33.9934 62.1019 33.9934 62.0342 34.0273 61.9327L34.1626 61.3573H34.1288Z" fill="#FCD3C1"/>
<path fill-rule="evenodd" clip-rule="evenodd" d="M53.4197 61.3573C53.9612 58.7852 55.9919 56.7884 58.5978 56.2807L59.1732 56.1792C59.1732 56.1792 59.3086 56.1792 59.3763 56.1792C59.7485 56.1792 60.0531 56.4838 60.0531 56.8561C60.0531 57.2284 59.7824 57.4991 59.4101 57.533L58.8347 57.6345C56.8041 58.0406 55.1458 59.6313 54.7396 61.6619L54.6042 62.2373C54.6042 62.5757 54.2997 62.8465 53.9274 62.8465C53.5551 62.8465 53.2505 62.5419 53.2505 62.1696C53.2505 62.1019 53.2505 62.0342 53.2843 61.9327L53.4197 61.3573Z" fill="#FCD3C1"/>
<path d="M51.9444 97.0097C76.7377 97.0097 96.8367 76.9107 96.8367 52.1174V3.67312H48.3924C23.599 3.67312 3.50011 23.7721 3.50011 48.5654V97.0097H51.9444Z" stroke="#242424" stroke-width="7"/>
</svg>
