<svg width="101" height="102" viewBox="0 0 101 102" fill="none" xmlns="http://www.w3.org/2000/svg">
<path d="M48.3923 97.6731H96.8366V4.33656H3.5V52.7809C3.5 77.5742 23.599 97.6731 48.3923 97.6731Z" fill="#F9EBEF"/>
<path fill-rule="evenodd" clip-rule="evenodd" d="M83.7283 95.2332L79.672 85.6425C77.6095 80.7956 75.3751 76.0519 70.0814 76.0519H32.6469C27.3875 76.0519 25.1188 80.7613 23.0563 85.6425L19 95.2332H83.6939H83.7283Z" fill="#7D464B"/>
<path fill-rule="evenodd" clip-rule="evenodd" d="M32.9907 56.2862H36.3938V23.3892H32.9907V56.2862Z" fill="#C8A1A3"/>
<path fill-rule="evenodd" clip-rule="evenodd" d="M66.3345 56.2862H69.772V23.3892H66.3345V56.2862Z" fill="#C8A1A3"/>
<path fill-rule="evenodd" clip-rule="evenodd" d="M31.9248 49.8924H70.803C73.3468 49.8924 75.4093 51.9549 75.4093 54.4987V64.4331C75.4093 66.9768 73.3468 69.0393 70.803 69.0393H31.9248C29.3811 69.0393 27.2842 66.9768 27.2842 64.4331V54.4987C27.2842 51.9549 29.3811 49.8924 31.9248 49.8924Z" fill="#A7A9AC"/>
<path fill-rule="evenodd" clip-rule="evenodd" d="M51.3817 90.6613C61.4879 90.6613 69.7724 82.3769 69.7724 72.2706V47.6581C69.7724 40.7831 64.1692 35.1799 57.2942 35.1799H45.5036C38.6285 35.1799 33.0254 40.8174 33.0254 47.6581V72.2706C33.0254 82.3769 41.3098 90.6613 51.4161 90.6613H51.3817Z" fill="#CA6E6B"/>
<path fill-rule="evenodd" clip-rule="evenodd" d="M64.7533 49.1362H56.0221C54.0971 49.1362 52.4814 50.7174 52.4814 52.6768V61.4081C52.4814 63.3675 54.0627 64.9487 56.0221 64.9487H64.7533C66.7127 64.9487 68.2939 63.3675 68.2939 61.4081V52.6768C68.2939 50.7174 66.7127 49.1362 64.7533 49.1362Z" fill="white"/>
<path fill-rule="evenodd" clip-rule="evenodd" d="M64.2379 51.13H56.5378C55.4034 51.13 54.4753 52.0581 54.4753 53.1925V60.8925C54.4753 62.0268 55.4034 62.955 56.5378 62.955H64.2379C65.3722 62.955 66.3004 62.0268 66.3004 60.8925V53.1925C66.3004 52.0581 65.3722 51.13 64.2379 51.13Z" fill="#4F4B6A"/>
<path fill-rule="evenodd" clip-rule="evenodd" d="M46.7062 49.1362H37.975C36.05 49.1362 34.4343 50.7174 34.4343 52.6768V61.4081C34.4343 63.3675 36.0156 64.9487 37.975 64.9487H46.7062C48.6656 64.9487 50.2468 63.3675 50.2468 61.4081V52.6768C50.2468 50.7174 48.6656 49.1362 46.7062 49.1362Z" fill="white"/>
<path fill-rule="evenodd" clip-rule="evenodd" d="M46.191 51.13H38.4909C37.3566 51.13 36.4285 52.0581 36.4285 53.1925V60.8925C36.4285 62.0268 37.3566 62.955 38.4909 62.955H46.191C47.3254 62.955 48.2535 62.0268 48.2535 60.8925V53.1925C48.2535 52.0581 47.3254 51.13 46.191 51.13Z" fill="#4F4B6A"/>
<path fill-rule="evenodd" clip-rule="evenodd" d="M58.7029 70.93H44.0591C41.8935 70.93 40.106 72.7175 40.106 74.8831V78.5269C40.106 80.6925 41.8935 82.48 44.0591 82.48H58.7029C60.8685 82.48 62.656 80.6925 62.656 78.5269V74.8831C62.656 72.7175 60.8685 70.93 58.7029 70.93Z" fill="#F9BBBD"/>
<path fill-rule="evenodd" clip-rule="evenodd" d="M59.5625 75.7081H43.2V77.7019H59.5625V75.7081Z" fill="white"/>
<path fill-rule="evenodd" clip-rule="evenodd" d="M34.7096 21.4299C32.3034 21.4299 30.344 23.3893 30.344 25.7955C30.344 28.2018 32.3034 30.1612 34.7096 30.1612C37.1159 30.1612 39.0752 28.2018 39.0752 25.7955C39.0752 23.3893 37.1159 21.4299 34.7096 21.4299Z" fill="#CA6E6B"/>
<path fill-rule="evenodd" clip-rule="evenodd" d="M68.0534 21.4299C65.6471 21.4299 63.6877 23.3893 63.6877 25.7955C63.6877 28.2018 65.6471 30.1612 68.0534 30.1612C70.4596 30.1612 72.419 28.2018 72.419 25.7955C72.419 23.3893 70.4596 21.4299 68.0534 21.4299Z" fill="#CA6E6B"/>
<path fill-rule="evenodd" clip-rule="evenodd" d="M48.2536 56.0112H36.4629V58.0049H48.2536V56.0112Z" fill="white"/>
<path fill-rule="evenodd" clip-rule="evenodd" d="M66.3004 56.0112H54.4753V58.0049H66.3004V56.0112Z" fill="white"/>
<path d="M48.3923 97.6731H96.8366V4.33656H3.5V52.7809C3.5 77.5742 23.599 97.6731 48.3923 97.6731Z" stroke="#242424" stroke-width="7"/>
</svg>
