<svg width="102" height="102" viewBox="0 0 102 102" fill="none" xmlns="http://www.w3.org/2000/svg">
<path d="M4.1731 97.6731H52.6174C77.4107 97.6731 97.5097 77.5742 97.5097 52.7808V4.33656H4.1731V97.6731Z" fill="#EFF9EB"/>
<path fill-rule="evenodd" clip-rule="evenodd" d="M66.4149 53.9858V34.7624C66.4149 30.1596 62.6582 26.4029 58.0554 26.4029H36.226C31.6233 26.4029 27.8666 30.1596 27.8666 34.7624V53.9858H25.4636V34.7624C25.4636 28.8397 30.3033 24 36.226 24H58.0554C63.9781 24 68.8178 28.8397 68.8178 34.7624V53.9858H66.4149Z" fill="#8D8F91"/>
<path fill-rule="evenodd" clip-rule="evenodd" d="M47.1582 47.3862C38.0541 47.3862 30.6085 54.8319 30.6085 63.9359V87.7959C26.3441 89.3528 22.4521 91.6542 19 94.4632H75.3502C71.8982 91.6203 67.9723 89.3528 63.7418 87.7959V63.9359C63.7418 54.8319 56.296 47.3862 47.192 47.3862H47.1582Z" fill="#F6ADCD"/>
<path fill-rule="evenodd" clip-rule="evenodd" d="M63.8433 70.434C68.8522 69.6217 72.6765 65.2897 72.6765 60.0777C72.6765 54.8657 68.8522 50.4998 63.8433 49.7214V70.4678V70.434Z" fill="#ED1651"/>
<path fill-rule="evenodd" clip-rule="evenodd" d="M30.4722 70.434C25.4633 69.6217 21.6389 65.2897 21.6389 60.0777C21.6389 54.8657 25.4633 50.4998 30.4722 49.7214V70.4678V70.434Z" fill="#ED1651"/>
<path fill-rule="evenodd" clip-rule="evenodd" d="M30.4727 33.0702H63.8428V71.9908C63.8428 81.1625 56.3295 88.6759 47.1577 88.6759C37.986 88.6759 30.4727 81.1625 30.4727 71.9908V33.0702Z" fill="#58595B"/>
<path fill-rule="evenodd" clip-rule="evenodd" d="M54.9074 52.5982C51.9291 52.5982 49.5601 55.0011 49.5601 57.9455C49.5601 60.89 51.963 63.2929 54.9074 63.2929C57.8518 63.2929 60.2547 60.89 60.2547 57.9455C60.2547 55.0011 57.8518 52.5982 54.9074 52.5982Z" fill="#58595B"/>
<path fill-rule="evenodd" clip-rule="evenodd" d="M39.4077 52.5982C36.4294 52.5982 34.0603 55.0011 34.0603 57.9455C34.0603 60.89 36.4632 63.2929 39.4077 63.2929C42.3521 63.2929 44.755 60.89 44.755 57.9455C44.755 55.0011 42.3521 52.5982 39.4077 52.5982Z" fill="white"/>
<path fill-rule="evenodd" clip-rule="evenodd" d="M56.8028 67.7603C55.6521 72.0246 51.7262 75.1383 47.0895 75.0706C42.5544 75.0029 38.7978 71.9231 37.6809 67.7603H40.05C41.0992 70.6709 43.8405 72.7692 47.1234 72.8031C50.474 72.8707 53.3507 70.7386 54.4337 67.7603H56.8028Z" fill="white"/>
<path fill-rule="evenodd" clip-rule="evenodd" d="M30.4727 33.0702H41.6073H52.7081H63.8428L58.2924 40.2113L52.7081 33.0702L47.1577 40.2113L41.6073 33.0702L36.0231 40.2113L30.4727 33.0702Z" fill="#F6ADCD"/>
<path fill-rule="evenodd" clip-rule="evenodd" d="M58.9012 55.8472H50.8802C49.6957 55.8472 48.748 56.7948 48.748 57.9794C48.748 59.1639 49.6957 60.1115 50.8802 60.1115H58.9012C60.0858 60.1115 61.0334 59.1639 61.0334 57.9794C61.0334 56.7948 60.0858 55.8472 58.9012 55.8472Z" fill="white"/>
<path d="M4.1731 97.6731H52.6174C77.4107 97.6731 97.5097 77.5742 97.5097 52.7808V4.33656H4.1731V97.6731Z" stroke="#242424" stroke-width="7"/>
</svg>
