<svg width="102" height="101" viewBox="0 0 102 101" fill="none" xmlns="http://www.w3.org/2000/svg">
<path d="M4.1731 4H52.6174C77.4107 4 97.5097 24.099 97.5097 48.8923V97.3366H4.1731V4Z" fill="#F9F6EB"/>
<path fill-rule="evenodd" clip-rule="evenodd" d="M21 63.8159H78.5348V76.6089C78.5348 83.6484 72.7813 89.4019 65.7418 89.4019H33.793C26.7535 89.4019 21 83.6484 21 76.6089V63.8159Z" fill="#F58220"/>
<path fill-rule="evenodd" clip-rule="evenodd" d="M29.4949 86.0175H70.04V95.4938H29.4949V86.0175Z" fill="#939598"/>
<path fill-rule="evenodd" clip-rule="evenodd" d="M54.0317 58.0624V64.5266H69.4308C71.1907 64.5266 72.6459 63.0713 72.6459 61.3114C72.6459 59.5515 71.1907 58.0962 69.4308 58.0962H54.0317V58.0624Z" fill="#8B2B0D"/>
<path fill-rule="evenodd" clip-rule="evenodd" d="M45.5707 58.0624V64.5266H30.1717C28.4119 64.5266 26.9565 63.0713 26.9565 61.3114C26.9565 59.5515 28.4119 58.0962 30.1717 58.0962H45.5707V58.0624Z" fill="#8B2B0D"/>
<path fill-rule="evenodd" clip-rule="evenodd" d="M45.5708 42.1896H54.0657V28.855C54.0657 26.5198 52.1704 24.6245 49.8352 24.6245C47.4999 24.6245 45.6047 26.5198 45.6047 28.855V42.1896H45.5708Z" fill="#231F20"/>
<path fill-rule="evenodd" clip-rule="evenodd" d="M49.7679 78.1996C41.9499 78.1996 35.5195 84.5961 35.5534 92.4141V95.4939H63.9823V92.4141C63.9823 84.5961 57.5858 78.1996 49.7679 78.1996Z" fill="#939598"/>
<path fill-rule="evenodd" clip-rule="evenodd" d="M62.2221 78.1996H37.3468C33.0486 78.1996 29.5288 81.7194 29.5288 86.0175C29.5288 90.3157 33.0486 93.8355 37.3468 93.8355H62.2221C66.5203 93.8355 70.0401 90.3157 70.0401 86.0175C70.0401 81.7194 66.5203 78.1996 62.2221 78.1996Z" fill="#939598"/>
<path fill-rule="evenodd" clip-rule="evenodd" d="M64.1513 49.4322C56.1979 49.4322 49.7676 55.8625 49.7676 63.8159C49.7676 71.7692 56.1979 78.1996 64.1513 78.1996C72.1046 78.1996 78.535 71.7692 78.535 63.8159C78.535 55.8625 72.1046 49.4322 64.1513 49.4322Z" fill="#F58220"/>
<path fill-rule="evenodd" clip-rule="evenodd" d="M60.9022 34.507C54.7765 34.507 49.7676 39.482 49.7676 45.6078C49.7676 51.7336 54.7426 56.7086 60.9022 56.7086C67.0618 56.7086 72.0031 51.7336 72.0031 45.6078C72.0031 39.482 67.028 34.507 60.9022 34.507Z" fill="#F58220"/>
<path fill-rule="evenodd" clip-rule="evenodd" d="M57.6194 23C53.2874 23 49.7676 26.5198 49.7676 30.8518C49.7676 35.1838 53.2874 38.7036 57.6194 38.7036C61.9514 38.7036 65.4712 35.1838 65.4712 30.8518C65.4712 26.5198 61.9514 23 57.6194 23Z" fill="#F58220"/>
<path fill-rule="evenodd" clip-rule="evenodd" d="M49.7676 23.0338H57.6194L61.7822 63.8159H49.7676V23.0338Z" fill="#F58220"/>
<path fill-rule="evenodd" clip-rule="evenodd" d="M35.3837 49.4322C43.337 49.4322 49.7674 55.8625 49.7674 63.8159C49.7674 71.7692 43.337 78.1996 35.3837 78.1996C27.4304 78.1996 21 71.7692 21 63.8159C21 55.8625 27.4304 49.4322 35.3837 49.4322Z" fill="#F58220"/>
<path fill-rule="evenodd" clip-rule="evenodd" d="M38.6665 34.507C44.7923 34.507 49.7674 39.482 49.7674 45.6078C49.7674 51.7336 44.7923 56.7086 38.6665 56.7086C32.5407 56.7086 27.5657 51.7336 27.5657 45.6078C27.5657 39.482 32.5407 34.507 38.6665 34.507Z" fill="#F58220"/>
<path fill-rule="evenodd" clip-rule="evenodd" d="M41.916 23C46.248 23 49.7679 26.5198 49.7679 30.8518C49.7679 35.1838 46.248 38.7036 41.916 38.7036C37.584 38.7036 34.0642 35.1838 34.0642 30.8518C34.0642 26.5198 37.584 23 41.916 23Z" fill="#F58220"/>
<path fill-rule="evenodd" clip-rule="evenodd" d="M49.7673 23.0338H41.9155L37.7527 63.8159H49.7673V23.0338Z" fill="#F58220"/>
<path fill-rule="evenodd" clip-rule="evenodd" d="M56.9763 32.4086H42.5926C39.5805 32.4086 37.1099 34.8792 37.1099 37.8914V51.1921C37.1099 58.1639 42.8295 63.8836 49.8014 63.8836C56.7732 63.8836 62.4929 58.1639 62.4929 51.1921V37.8914C62.4929 34.8792 60.0223 32.4086 57.0102 32.4086H56.9763Z" fill="white"/>
<path fill-rule="evenodd" clip-rule="evenodd" d="M58.7701 78.1996H40.7651C45.7402 78.335 49.7338 82.3624 49.7677 87.3713C49.7677 82.3624 53.7951 78.335 58.7701 78.1996Z" fill="white"/>
<path fill-rule="evenodd" clip-rule="evenodd" d="M46.2476 62.4283H53.2871V78.1996H46.2476V62.4283Z" fill="white"/>
<path fill-rule="evenodd" clip-rule="evenodd" d="M61.5453 78.1996V83.6823C61.5453 88.1836 57.8563 91.8726 53.3551 91.8726H46.1463C41.645 91.8726 37.9561 88.1836 37.9561 83.6823V78.1996H61.5115H61.5453Z" fill="#939598"/>
<path fill-rule="evenodd" clip-rule="evenodd" d="M40.6636 78.1996H58.8716V83.6823C58.8716 86.6944 56.401 89.165 53.3551 89.165H46.1463C43.1342 89.165 40.6636 86.6944 40.6636 83.6823V78.1996Z" fill="white"/>
<path fill-rule="evenodd" clip-rule="evenodd" d="M36.0266 31.3256H63.3049V40.8696H36.0266V31.3256Z" fill="#F58220"/>
<path fill-rule="evenodd" clip-rule="evenodd" d="M34.8088 38.0267H44.8944C48.2111 38.0267 50.9186 40.7343 50.9186 44.051V50.0752H40.8331C37.5164 50.0752 34.8088 47.3677 34.8088 44.051V38.0267Z" fill="white"/>
<path fill-rule="evenodd" clip-rule="evenodd" d="M37.0422 40.2604V44.0171C37.0422 46.0816 38.7344 47.7738 40.7989 47.7738H48.6169V44.0171C48.6169 41.9526 46.9247 40.2604 44.8602 40.2604H37.0422Z" fill="#62212A"/>
<path fill-rule="evenodd" clip-rule="evenodd" d="M64.7272 38.0267H54.6417C51.3249 38.0267 48.6174 40.7343 48.6174 44.051V50.0752H58.703C62.0197 50.0752 64.7272 47.3677 64.7272 44.051V38.0267Z" fill="white"/>
<path fill-rule="evenodd" clip-rule="evenodd" d="M62.4931 40.2604V44.0171C62.4931 46.0816 60.8009 47.7738 58.7364 47.7738H50.9185V44.0171C50.9185 41.9526 52.6107 40.2604 54.6751 40.2604H62.4931Z" fill="#62212A"/>
<path fill-rule="evenodd" clip-rule="evenodd" d="M49.7682 54.7795C50.8851 54.7795 51.7988 55.6933 51.7988 56.8102V59.0439C51.7988 60.1607 50.8851 61.0745 49.7682 61.0745C48.6514 61.0745 47.7375 60.1607 47.7375 59.0439V56.8102C47.7375 55.6933 48.6514 54.7795 49.7682 54.7795Z" fill="#F05B74"/>
<path d="M4.1731 4H52.6174C77.4107 4 97.5097 24.099 97.5097 48.8923V97.3366H4.1731V4Z" stroke="#242424" stroke-width="7"/>
</svg>
