<svg width="12" height="12" viewBox="0 0 12 12" fill="none" xmlns="http://www.w3.org/2000/svg">
<path d="M6.00011 4.586L10.2431 0.343001C10.6336 -0.0474642 11.2666 -0.0474637 11.6571 0.343002C12.0476 0.733467 12.0476 1.36654 11.6571 1.757L7.41411 6L11.6571 10.243C12.0476 10.6335 12.0476 11.2665 11.6571 11.657C11.2666 12.0475 10.6336 12.0475 10.2431 11.657L6.00011 7.414L1.75711 11.657C1.36664 12.0475 0.733574 12.0475 0.343109 11.657C-0.0473569 11.2665 -0.0473569 10.6335 0.343108 10.243L4.58611 6L0.343109 1.757C-0.047356 1.36654 -0.0473569 0.733467 0.343108 0.343002C0.733574 -0.0474637 1.36664 -0.0474637 1.75711 0.343002L6.00011 4.586Z" fill="#404040"/>
</svg>
